<svg width="120" height="120" viewBox="0 0 120 120" fill="none" xmlns="http://www.w3.org/2000/svg">
<rect width="120" height="120" fill="#FF6600"/>
<path d="M12 87.1429H18.8571V94H12V87.1429ZM12 80.2857H18.8571V87.1429H12V80.2857ZM12 73.4286H18.8571V80.2857H12V73.4286ZM12 66.5714H18.8571V73.4286H12V66.5714ZM12 59.7143H18.8571V66.5714H12V59.7143ZM12 52.8571H18.8571V59.7143H12V52.8571ZM18.8571 52.8571H25.7143V59.7143H18.8571V52.8571ZM18.8571 46H25.7143V52.8571H18.8571V46ZM18.8571 39.1429H25.7143V46H18.8571V39.1429ZM18.8571 32.2857H25.7143V39.1429H18.8571V32.2857ZM12 32.2857H18.8571V39.1429H12V32.2857ZM12 25.4286H18.8571V32.2857H12V25.4286ZM12 39.1429H18.8571V46H12V39.1429ZM12 46H18.8571V52.8571H12V46ZM18.8571 25.4286H25.7143V32.2857H18.8571V25.4286ZM18.8571 59.7143H25.7143V66.5714H18.8571V59.7143ZM18.8571 66.5714H25.7143V73.4286H18.8571V66.5714ZM18.8571 73.4286H25.7143V80.2857H18.8571V73.4286ZM18.8571 80.2857H25.7143V87.1429H18.8571V80.2857ZM18.8571 87.1429H25.7143V94H18.8571V87.1429ZM25.7143 39.1429H32.5714V46H25.7143V39.1429ZM25.7143 46H32.5714V52.8571H25.7143V46ZM32.5714 46H39.4286V52.8571H32.5714V46ZM32.5714 52.8571H39.4286V59.7143H32.5714V52.8571ZM39.4286 52.8571H46.2857V59.7143H39.4286V52.8571ZM39.4286 59.7143H46.2857V66.5714H39.4286V59.7143ZM46.2857 52.8571H53.1429V59.7143H46.2857V52.8571ZM46.2857 46H53.1429V52.8571H46.2857V46ZM53.1429 46H60V52.8571H53.1429V46ZM53.1429 39.1429H60V46H53.1429V39.1429ZM60 25.4286H66.8571V32.2857H60V25.4286ZM60 32.2857H66.8571V39.1429H60V32.2857ZM60 39.1429H66.8571V46H60V39.1429ZM60 46H66.8571V52.8571H60V46ZM60 52.8571H66.8571V59.7143H60V52.8571ZM60 59.7143H66.8571V66.5714H60V59.7143ZM60 66.5714H66.8571V73.4286H60V66.5714ZM60 73.4286H66.8571V80.2857H60V73.4286ZM60 80.2857H66.8571V87.1429H60V80.2857ZM60 87.1429H66.8571V94H60V87.1429ZM66.8571 87.1429H73.7143V94H66.8571V87.1429ZM66.8571 80.2857H73.7143V87.1429H66.8571V80.2857ZM66.8571 73.4286H73.7143V80.2857H66.8571V73.4286ZM66.8571 66.5714H73.7143V73.4286H66.8571V66.5714ZM66.8571 59.7143H73.7143V66.5714H66.8571V59.7143ZM66.8571 52.8571H73.7143V59.7143H66.8571V52.8571ZM66.8571 46H73.7143V52.8571H66.8571V46ZM66.8571 39.1429H73.7143V46H66.8571V39.1429ZM66.8571 32.2857H73.7143V39.1429H66.8571V32.2857ZM66.8571 25.4286H73.7143V32.2857H66.8571V25.4286ZM25.7143 32.2857H32.5714V39.1429H25.7143V32.2857ZM32.5714 39.1429H39.4286V46H32.5714V39.1429ZM39.4286 46H46.2857V52.8571H39.4286V46ZM46.2857 39.1429H53.1429V46H46.2857V39.1429ZM53.1429 32.2857H60V39.1429H53.1429V32.2857Z" fill="white"/>
<path d="M60 25.4286H66.8571V32.2857H60V25.4286ZM66.8571 25.4286H73.7143V32.2857H66.8571V25.4286ZM66.8571 32.2857H73.7143V39.1429H66.8571V32.2857ZM66.8571 39.1429H73.7143V46H66.8571V39.1429ZM66.8571 46H73.7143V52.8571H66.8571V46ZM60 39.1429H66.8571V46H60V39.1429ZM60 32.2857H66.8571V39.1429H60V32.2857ZM60 46H66.8571V52.8571H60V46ZM60 52.8571H66.8571V59.7143H60V52.8571ZM60 66.5714H66.8571V73.4286H60V66.5714ZM60 59.7143H66.8571V66.5714H60V59.7143ZM66.8571 52.8571H73.7143V59.7143H66.8571V52.8571ZM66.8571 59.7143H73.7143V66.5714H66.8571V59.7143ZM66.8571 66.5714H73.7143V73.4286H66.8571V66.5714ZM66.8571 73.4286H73.7143V80.2857H66.8571V73.4286ZM60 73.4286H66.8571V80.2857H60V73.4286ZM60 87.1429H66.8571V94H60V87.1429ZM66.8571 87.1429H73.7143V94H66.8571V87.1429ZM66.8571 80.2857H73.7143V87.1429H66.8571V80.2857ZM60 80.2857H66.8571V87.1429H60V80.2857ZM101.143 87.1429H108V94H101.143V87.1429ZM101.143 80.2857H108V87.1429H101.143V80.2857ZM101.143 73.4286H108V80.2857H101.143V73.4286ZM101.143 66.5714H108V73.4286H101.143V66.5714ZM101.143 59.7143H108V66.5714H101.143V59.7143ZM101.143 52.8571H108V59.7143H101.143V52.8571ZM101.143 25.4286H108V32.2857H101.143V25.4286ZM94.2857 25.4286H101.143V32.2857H94.2857V25.4286ZM94.2857 32.2857H101.143V39.1429H94.2857V32.2857ZM94.2857 39.1429H101.143V46H94.2857V39.1429ZM94.2857 46H101.143V52.8571H94.2857V46ZM101.143 46H108V52.8571H101.143V46ZM101.143 39.1429H108V46H101.143V39.1429ZM101.143 32.2857H108V39.1429H101.143V32.2857ZM94.2857 52.8571H101.143V59.7143H94.2857V52.8571ZM94.2857 80.2857H101.143V87.1429H94.2857V80.2857ZM94.2857 73.4286H101.143V80.2857H94.2857V73.4286ZM94.2857 66.5714H101.143V73.4286H94.2857V66.5714ZM94.2857 59.7143H101.143V66.5714H94.2857V59.7143ZM94.2857 87.1429H101.143V94H94.2857V87.1429ZM87.4286 52.8571H94.2857V59.7143H87.4286V52.8571ZM80.5714 52.8571H87.4286V59.7143H80.5714V52.8571ZM73.7143 52.8571H80.5714V59.7143H73.7143V52.8571ZM73.7143 59.7143H80.5714V66.5714H73.7143V59.7143ZM80.5714 59.7143H87.4286V66.5714H80.5714V59.7143ZM87.4286 59.7143H94.2857V66.5714H87.4286V59.7143Z" fill="white"/>
</svg>
