<svg width="220" height="220" viewBox="0 0 220 220" fill="none" xmlns="http://www.w3.org/2000/svg">
<rect x="2.5" y="2.5" width="215" height="215" fill="#FF6600" stroke="white" stroke-width="5"/>
<path d="M42.216 156V62.56H59.24L71.144 103.008L83.56 62.56H100.584V156H89.448V111.84C89.448 107.659 89.4907 102.88 89.576 97.504C89.7467 92.0427 89.96 86.5387 90.216 80.992C90.472 75.4453 90.7707 70.4533 91.112 66.016L76.008 114.272H66.024L51.56 67.168C52.2427 73.4827 52.712 80.3947 52.968 87.904C53.224 95.4133 53.352 103.392 53.352 111.84V156H42.216ZM121.654 156V62.56H133.174V102.496H163.126V62.56H174.646V156H163.126V112.992H133.174V156H121.654Z" fill="white"/>
</svg>
